{"glyphs":{":":{"x_min":0,"x_max":320,"ha":320,"o":"m 198 384 q 167 384 148 402 q 128 420 128 454 q 128 492 150 516 q 172 541 208 541 q 239 541 259 524 q 279 507 279 472 q 279 423 253 404 q 227 384 198 384 z m 111 -8 q 80 -8 60 10 q 40 28 40 62 q 40 100 62 124 q 84 149 120 149 q 152 149 172 132 q 192 116 192 81 q 192 32 166 12 q 140 -8 111 -8 z"},"$":{"x_min":0,"x_max":508,"ha":508,"o":"m 168 -79 l 193 38 q 115 45 76 77 q 37 109 37 159 q 37 205 64 233 q 91 261 141 261 q 140 191 158 152 q 175 112 206 98 l 249 318 q 189 352 157 393 q 125 434 125 496 q 125 587 182 635 q 238 683 331 686 l 346 760 l 395 760 l 378 685 q 446 680 480 655 q 514 630 515 590 q 516 551 488 526 q 460 500 410 500 q 411 536 400 574 q 390 612 365 626 l 324 422 l 345 410 q 403 376 430 334 q 458 293 458 237 q 458 145 399 92 q 340 40 240 37 l 216 -79 z m 281 450 l 316 632 q 288 627 265 602 q 242 578 242 532 q 242 504 252 486 q 262 467 281 450 z m 253 92 q 293 94 318 124 q 342 154 342 201 q 342 226 332 247 q 321 268 293 290 z"},"?":{"x_min":0,"x_max":467,"ha":467,"o":"m 178 225 l 175 351 q 254 385 302 434 q 351 484 351 569 q 351 615 335 640 q 319 665 295 665 q 268 665 252 644 q 235 624 226 591 q 216 558 211 520 q 100 520 100 592 q 100 628 126 658 q 151 688 198 706 q 244 724 307 724 q 393 724 443 686 q 493 648 493 568 q 493 507 464 460 q 434 414 384 379 q 334 344 270 317 l 237 225 z m 179 -8 q 148 -8 128 10 q 108 28 108 62 q 108 100 130 124 q 152 149 188 149 q 220 149 240 132 q 260 116 260 81 q 260 32 234 12 q 208 -8 179 -8 z"},"<":{"x_min":0,"x_max":465,"ha":465,"o":"m 438 105 l 65 338 l 65 377 l 438 611 l 438 534 l 159 357 l 438 182 z"},"'":{"x_min":0,"x_max":251,"ha":251,"o":"m 139 447 l 158 714 l 298 714 l 198 447 z"},"=":{"x_min":0,"x_max":465,"ha":465,"o":"m 63 416 l 63 483 l 440 483 l 440 416 z m 63 231 l 63 298 l 440 298 l 440 231 z"},"a":{"x_min":0,"x_max":586,"ha":586,"o":"m 159 -10 q 100 -10 70 39 q 39 88 39 161 q 39 208 51 261 q 63 314 86 364 q 110 415 144 456 q 179 497 224 522 q 269 546 323 546 q 358 546 393 535 q 428 524 447 511 l 495 535 l 544 535 l 478 222 q 476 210 471 190 q 466 169 462 148 q 459 126 459 112 q 459 66 489 66 q 501 66 512 72 q 522 77 535 87 l 553 49 q 530 30 497 10 q 464 -10 414 -10 q 376 -10 352 10 q 329 31 329 70 q 329 86 331 100 q 333 115 336 132 l 331 132 q 299 64 262 27 q 224 -10 159 -10 z m 219 66 q 238 66 258 85 q 278 104 296 136 q 315 169 330 208 q 345 248 353 288 l 388 455 q 380 470 366 478 q 352 485 335 485 q 305 485 280 462 q 255 440 236 404 q 216 367 203 324 q 190 280 183 237 q 176 194 176 160 q 176 108 188 87 q 201 66 219 66 z"},"L":{"x_min":0,"x_max":570,"ha":570,"o":"m -20 0 l -9 51 l 2 51 q 29 51 52 62 q 75 72 84 113 l 185 594 q 187 607 189 616 q 191 624 191 629 q 191 651 174 657 q 157 663 130 663 l 118 663 l 130 714 l 435 714 l 424 663 l 412 663 q 384 663 360 652 q 337 642 328 601 l 216 59 l 357 59 q 405 59 430 86 q 456 112 473 164 l 491 222 l 547 222 l 493 0 z"},"3":{"x_min":0,"x_max":508,"ha":508,"o":"m 188 -10 q 121 -10 82 8 q 42 26 24 53 q 7 80 7 107 q 7 147 34 169 q 60 191 108 191 q 106 135 129 96 q 152 58 202 58 q 230 58 257 76 q 284 95 301 132 q 318 169 318 224 q 318 280 287 310 q 256 339 197 339 l 160 339 l 170 399 l 198 399 q 248 399 288 422 q 328 445 351 486 q 374 528 374 583 q 374 619 361 642 q 348 665 317 665 q 286 665 266 644 q 247 623 236 590 q 224 556 217 516 q 174 516 145 529 q 116 542 116 576 q 116 617 146 650 q 175 684 224 704 q 274 724 334 724 q 414 724 463 688 q 512 651 512 585 q 512 538 492 494 q 471 450 430 417 q 390 384 331 372 q 389 365 423 328 q 457 292 457 231 q 457 163 432 116 q 408 70 368 42 q 328 14 280 2 q 233 -10 188 -10 z"},";":{"x_min":0,"x_max":319,"ha":319,"o":"m 198 384 q 167 384 148 402 q 128 420 128 454 q 128 492 150 516 q 172 541 208 541 q 239 541 259 524 q 279 507 279 472 q 279 423 253 404 q 227 384 198 384 z m -14 -150 l -3 -99 q 89 -75 89 -14 q 89 5 78 16 q 66 26 55 39 q 44 52 44 78 q 44 112 64 130 q 85 148 113 148 q 144 148 166 125 q 187 102 187 61 q 187 -14 136 -72 q 85 -129 -14 -150 z"},"J":{"x_min":0,"x_max":353,"ha":353,"o":"m -69 -240 q -94 -240 -110 -237 q -126 -234 -143 -229 l -130 -176 q -119 -180 -103 -182 q -87 -185 -74 -185 q -44 -185 -20 -169 q 5 -153 24 -114 q 44 -74 59 -4 l 188 604 q 190 610 191 617 q 192 624 192 629 q 192 651 174 657 q 157 663 130 663 l 120 663 l 130 714 l 436 714 l 425 663 l 414 663 q 385 663 361 652 q 337 641 329 600 l 202 -4 q 184 -88 144 -140 q 104 -192 49 -216 q -6 -240 -69 -240 z"},"V":{"x_min":0,"x_max":608,"ha":608,"o":"m 213 0 l 158 614 q 155 645 140 654 q 125 663 104 663 l 93 663 l 104 714 l 397 714 l 386 663 l 365 663 q 336 663 320 654 q 303 644 303 612 q 303 606 304 599 q 304 592 304 587 l 324 296 q 326 257 326 214 q 326 171 325 145 q 336 174 351 214 q 366 254 385 294 l 530 582 q 540 601 544 614 q 547 626 547 636 q 547 652 534 658 q 522 663 498 663 l 477 663 l 487 714 l 715 714 l 704 663 l 682 663 q 666 663 655 658 q 644 653 633 638 q 622 624 607 594 l 303 0 z"},"\"":{"x_min":0,"x_max":437,"ha":437,"o":"m 132 447 l 160 714 l 301 714 l 191 447 z m 324 447 l 353 714 l 493 714 l 384 447 z"},"7":{"x_min":0,"x_max":508,"ha":508,"o":"m 102 0 l 460 611 l 237 611 q 190 611 176 560 l 162 510 l 107 510 l 152 714 l 565 714 l 555 661 l 178 0 z"},"S":{"x_min":0,"x_max":512,"ha":512,"o":"m 230 -10 q 123 -10 70 31 q 17 72 17 132 q 17 180 50 203 q 83 226 134 226 q 132 138 161 94 q 190 50 245 50 q 294 50 322 82 q 350 114 350 162 q 350 188 342 210 q 333 232 310 254 q 288 276 246 303 q 180 344 146 391 q 113 438 113 510 q 113 573 142 622 q 171 670 224 697 q 277 724 348 724 q 444 724 491 692 q 538 661 538 616 q 538 576 510 552 q 483 529 421 529 q 422 558 415 590 q 408 622 390 644 q 371 665 336 665 q 298 665 269 638 q 240 610 240 552 q 240 519 252 497 q 265 475 290 456 q 316 436 353 413 q 475 335 475 217 q 475 109 408 50 q 342 -10 230 -10 z"},"}":{"x_min":0,"x_max":385,"ha":385,"o":"m -51 -125 l -40 -74 l -5 -74 q 32 -74 48 -50 q 64 -25 75 25 l 112 195 q 122 242 150 271 q 178 300 231 314 l 233 321 q 159 343 159 408 q 159 418 162 430 q 164 441 167 452 l 200 611 q 206 636 206 661 q 206 684 196 697 q 186 710 160 710 l 125 710 l 137 761 l 223 761 q 285 761 316 732 q 346 704 346 657 q 346 647 345 636 q 344 625 340 603 l 306 442 q 304 434 303 427 q 302 420 302 412 q 302 373 326 360 q 351 348 387 346 l 373 289 q 330 287 298 269 q 265 251 253 193 l 217 21 q 200 -57 155 -91 q 110 -125 22 -125 z"},"Z":{"x_min":0,"x_max":584,"ha":584,"o":"m 1 0 l 10 48 l 453 655 l 300 655 q 223 655 198 569 l 182 514 l 117 514 l 166 714 l 640 714 l 630 665 l 186 59 l 361 59 q 404 59 433 83 q 462 107 477 162 l 487 200 l 552 200 l 504 0 z"},"x":{"x_min":0,"x_max":530,"ha":530,"o":"m -18 0 l -7 51 l 4 51 q 20 51 33 56 q 46 60 61 74 q 76 88 98 116 l 211 258 l 156 422 q 143 460 130 472 q 116 485 91 485 l 80 485 l 91 536 l 260 536 l 315 343 l 441 536 l 548 536 l 538 485 l 520 485 q 504 485 492 480 q 479 474 464 458 q 450 443 428 414 l 336 291 l 395 122 q 409 79 422 65 q 436 51 462 51 l 473 51 l 463 0 l 288 0 l 229 206 l 87 0 z"},")":{"x_min":0,"x_max":353,"ha":353,"o":"m -42 -137 l -31 -78 q 25 -43 66 14 q 106 71 133 139 q 160 207 176 276 q 192 344 198 403 q 205 462 205 501 q 205 560 190 618 q 175 675 137 708 l 150 769 q 253 728 298 645 q 344 562 344 459 q 344 368 320 274 q 296 179 248 96 q 200 12 128 -50 q 55 -111 -42 -137 z"},"&":{"x_min":0,"x_max":701,"ha":701,"o":"m 233 -10 q 164 -10 120 14 q 76 38 55 78 q 34 119 34 171 q 34 240 61 284 q 88 327 133 354 q 178 382 231 404 q 194 480 194 546 q 194 634 246 679 q 299 724 394 724 q 473 724 510 687 q 546 650 546 598 q 546 550 530 516 q 513 483 476 456 q 438 430 374 401 l 474 233 q 489 270 500 310 q 512 350 519 387 l 527 425 l 702 425 l 691 374 l 684 374 q 655 374 628 363 q 600 352 579 307 q 565 277 550 242 q 534 208 514 174 l 559 103 q 574 78 593 64 q 612 51 647 51 l 652 51 l 641 0 l 470 0 l 430 72 q 393 35 344 12 q 296 -10 233 -10 z m 346 448 q 401 476 423 506 q 445 537 445 588 q 445 666 388 666 q 353 666 334 636 q 316 606 316 555 q 316 528 324 502 q 331 476 346 448 z m 265 55 q 304 55 337 74 q 370 92 398 124 l 263 351 q 210 316 189 276 q 168 236 168 179 q 168 126 193 90 q 218 55 265 55 z"},"_":{"x_min":0,"x_max":397,"ha":397,"o":"m -83 -142 l -70 -83 l 335 -83 l 322 -142 z"},"v":{"x_min":0,"x_max":513,"ha":513,"o":"m 144 -9 l 95 432 q 91 464 76 474 q 62 485 37 485 l 28 485 l 40 536 l 215 536 l 247 240 q 252 190 254 148 q 255 106 256 81 l 258 81 q 299 128 335 186 q 371 244 394 299 q 416 354 416 396 q 416 430 400 445 q 384 460 360 459 q 362 499 382 522 q 401 544 434 544 q 462 544 480 523 q 499 502 499 456 q 499 409 483 358 q 467 306 440 254 q 413 203 382 156 q 351 108 320 68 q 289 29 264 1 z"},"O":{"x_min":0,"x_max":692,"ha":692,"o":"m 299 -11 q 232 -11 178 19 q 125 49 94 108 q 63 168 63 254 q 63 312 79 377 q 95 442 126 504 q 158 565 204 615 q 251 665 312 695 q 373 725 448 725 q 512 725 566 697 q 619 669 652 612 q 684 554 684 463 q 684 407 668 342 q 653 278 622 216 q 592 153 546 102 q 499 51 438 20 q 376 -11 299 -11 z m 320 53 q 364 53 398 82 q 433 112 459 160 q 485 209 502 267 q 519 325 528 382 q 536 440 536 487 q 536 578 506 620 q 476 662 427 662 q 384 662 349 632 q 314 603 288 554 q 262 505 244 448 q 227 390 218 332 q 210 274 210 228 q 210 136 242 94 q 274 53 320 53 z"},"(":{"x_min":0,"x_max":353,"ha":353,"o":"m 236 -137 q 167 -110 124 -64 q 81 -17 61 44 q 41 104 41 173 q 41 264 65 358 q 89 453 137 536 q 185 620 258 682 q 330 743 427 769 l 417 710 q 361 675 320 618 q 279 561 252 493 q 225 425 209 356 q 193 288 186 229 q 180 170 180 131 q 180 73 196 15 q 211 -43 249 -76 z"},"C":{"x_min":0,"x_max":583,"ha":583,"o":"m 322 -10 q 199 -10 131 58 q 63 125 63 247 q 63 338 92 424 q 121 509 174 578 q 227 646 300 686 q 374 727 463 727 q 549 727 591 696 q 633 666 633 616 q 633 570 596 546 q 558 522 503 522 q 504 543 502 568 q 500 593 494 615 q 487 637 473 652 q 459 666 436 666 q 395 666 360 639 q 325 612 298 567 q 271 522 252 467 q 233 412 223 354 q 213 296 213 245 q 213 161 250 116 q 286 70 357 70 q 417 70 456 99 q 494 128 516 162 q 520 158 525 149 q 530 140 530 129 q 530 96 506 64 q 481 32 434 11 q 388 -10 322 -10 z"},"W":{"x_min":0,"x_max":927,"ha":927,"o":"m 187 0 l 158 614 q 156 645 141 654 q 126 663 105 663 l 93 663 l 104 714 l 394 714 l 383 663 l 363 663 q 335 663 318 654 q 302 646 301 620 q 300 612 300 601 q 301 590 302 575 l 311 337 q 312 316 312 284 q 313 251 314 218 q 314 186 313 162 q 321 194 335 225 q 349 256 364 290 l 560 707 l 628 707 l 674 304 q 678 263 680 224 q 682 186 682 158 q 692 196 710 246 q 729 297 749 344 l 849 582 q 864 617 864 638 q 864 653 853 658 q 842 663 818 663 l 797 663 l 808 714 l 1036 714 l 1024 663 l 1004 663 q 978 663 963 650 q 948 636 927 589 l 671 0 l 569 0 l 520 490 l 299 0 z"},"A":{"x_min":0,"x_max":658,"ha":658,"o":"m -41 0 l -30 51 l -11 51 q 13 51 28 66 q 42 81 67 129 l 376 714 l 502 714 l 556 131 q 559 95 570 73 q 581 51 608 51 l 624 51 l 612 0 l 320 0 l 331 51 l 351 51 q 380 51 396 63 q 413 75 413 103 q 413 109 412 116 q 412 122 412 127 l 404 236 l 196 236 l 150 143 q 140 124 136 110 q 132 96 132 86 q 132 51 180 51 l 196 51 l 185 0 z m 316 475 l 226 295 l 400 295 l 388 466 q 386 510 384 546 q 381 581 382 617 q 368 581 354 552 q 340 522 316 475 z"},"f":{"x_min":0,"x_max":360,"ha":360,"o":"m -74 -240 q -87 -240 -103 -238 q -119 -235 -127 -232 l -114 -177 q -107 -179 -96 -182 q -85 -184 -75 -184 q -33 -184 -8 -147 q 18 -110 38 -13 l 140 470 l 61 470 l 71 515 l 155 536 l 165 581 q 187 674 238 722 q 289 770 379 770 q 446 770 481 746 q 516 722 516 686 q 516 653 489 634 q 462 616 411 616 q 412 654 404 683 q 396 712 372 712 q 346 712 332 686 q 318 661 306 600 l 293 536 l 404 536 l 390 470 l 278 470 l 182 12 q 166 -63 138 -112 q 109 -161 73 -189 q 37 -217 -1 -228 q -39 -240 -74 -240 z"},"Q":{"x_min":0,"x_max":687,"ha":687,"o":"m 415 -233 q 364 -233 324 -208 q 283 -184 258 -133 q 234 -82 233 -4 q 157 14 110 79 q 62 144 62 253 q 62 311 78 376 q 94 441 126 503 q 157 565 204 615 q 250 665 311 695 q 372 725 447 725 q 511 725 564 697 q 618 669 650 612 q 683 554 683 463 q 683 413 671 356 q 659 299 635 242 q 611 186 576 136 q 540 86 492 50 q 445 14 386 -1 q 387 -70 398 -108 q 409 -147 426 -162 q 444 -177 466 -177 q 481 -177 494 -172 l 500 -217 q 478 -225 459 -229 q 440 -233 415 -233 z m 319 53 q 363 53 398 82 q 432 112 458 160 q 484 209 502 267 q 519 325 528 382 q 536 440 536 487 q 536 578 506 620 q 475 662 426 662 q 383 662 348 632 q 313 603 287 554 q 261 505 244 448 q 226 390 218 332 q 209 274 209 228 q 209 136 240 94 q 272 53 319 53 z"},"w":{"x_min":0,"x_max":764,"ha":764,"o":"m 409 -10 q 410 36 412 94 q 413 152 414 210 q 414 269 414 319 q 414 369 413 400 q 398 359 376 308 q 355 257 329 202 q 303 148 275 96 q 247 45 220 3 l 105 -7 l 108 413 q 109 459 94 472 q 78 485 53 485 l 47 485 l 61 536 l 233 536 q 235 432 234 332 q 233 232 231 116 l 237 116 q 267 170 298 238 q 328 305 358 380 q 388 454 414 527 l 524 531 q 526 501 528 456 q 529 410 530 358 q 532 307 532 257 q 533 207 533 166 q 533 126 532 104 l 538 104 q 613 202 642 284 q 672 367 672 412 q 672 440 658 457 q 645 474 629 478 q 633 513 652 530 q 672 546 697 546 q 758 546 758 467 q 758 417 738 360 q 717 304 682 244 q 648 183 605 122 q 562 60 516 1 z"},"-":{"x_min":0,"x_max":269,"ha":269,"o":"m 15 224 l 38 322 l 264 322 l 240 224 z"},"E":{"x_min":0,"x_max":558,"ha":558,"o":"m -20 0 l -9 51 l 2 51 q 31 51 53 62 q 75 74 83 112 l 186 593 q 191 615 191 626 q 191 649 174 656 q 157 663 130 663 l 119 663 l 130 714 l 605 714 l 569 530 l 505 530 q 506 534 508 548 q 509 561 510 574 q 512 588 512 592 q 512 618 498 636 q 484 655 452 655 l 340 655 l 288 402 l 482 402 l 470 344 l 274 344 l 214 59 l 348 59 q 389 59 413 84 q 437 108 448 141 l 463 184 l 527 184 l 482 0 z"},"s":{"x_min":0,"x_max":451,"ha":451,"o":"m 180 -10 q 106 -10 61 18 q 16 47 16 97 q 16 128 31 146 q 46 165 70 174 q 93 182 118 182 q 117 146 124 116 q 132 85 150 66 q 168 48 198 48 q 235 48 258 70 q 280 91 280 129 q 280 163 258 183 q 236 203 191 227 q 138 256 108 291 q 77 326 77 382 q 77 457 132 502 q 187 546 281 546 q 340 546 376 533 q 411 520 426 498 q 441 477 441 453 q 441 414 412 396 q 383 379 333 379 q 334 406 329 432 q 324 457 310 474 q 295 491 269 491 q 237 491 218 472 q 199 452 198 424 q 196 392 220 370 q 243 347 288 324 q 347 293 374 258 q 400 222 400 169 q 400 86 345 38 q 290 -10 180 -10 z"},">":{"x_min":0,"x_max":465,"ha":465,"o":"m 65 105 l 65 182 l 344 357 l 65 534 l 65 611 l 438 377 l 438 338 z"},"l":{"x_min":0,"x_max":313,"ha":313,"o":"m 154 -10 q 102 -10 76 18 q 49 45 49 89 q 49 114 56 152 q 62 189 72 241 l 153 623 q 161 653 161 675 q 161 695 150 702 q 139 709 118 709 l 99 709 l 109 760 l 324 760 l 205 212 q 199 184 194 157 q 190 130 190 109 q 190 66 219 66 q 231 66 242 72 q 254 79 269 90 l 290 57 q 268 33 236 12 q 205 -10 154 -10 z"},"8":{"x_min":0,"x_max":508,"ha":508,"o":"m 233 -10 q 170 -10 124 12 q 77 33 52 70 q 26 108 26 156 q 26 214 49 252 q 72 289 112 315 q 152 341 202 363 q 168 394 146 438 q 124 481 124 531 q 124 582 146 626 q 169 670 218 697 q 268 724 350 724 q 431 724 476 684 q 522 643 522 582 q 522 530 502 494 q 483 458 448 431 q 414 404 369 381 q 412 350 441 308 q 470 266 470 208 q 470 134 439 86 q 408 37 354 14 q 301 -10 233 -10 z m 317 412 q 367 444 387 486 q 407 527 407 577 q 407 615 392 641 q 376 667 343 667 q 303 667 276 632 q 249 597 249 538 q 249 463 317 412 z m 234 46 q 280 46 314 80 q 347 113 347 180 q 347 228 324 262 q 300 296 255 328 q 205 302 176 260 q 147 217 147 152 q 147 103 170 74 q 193 46 234 46 z"},"\\":{"x_min":0,"x_max":250,"ha":250,"o":"m 144 -121 l 110 760 l 172 760 l 206 -121 z"},"e":{"x_min":0,"x_max":468,"ha":468,"o":"m 231 -10 q 178 -10 135 12 q 92 33 66 78 q 40 122 40 189 q 40 245 60 308 q 80 370 120 424 q 159 478 216 512 q 274 546 348 546 q 410 546 444 516 q 478 486 478 433 q 478 378 444 331 q 409 284 350 255 q 290 226 214 226 l 181 226 q 179 216 178 204 q 177 193 177 180 q 177 124 200 94 q 223 64 268 64 q 311 64 345 89 q 379 114 398 143 q 408 131 408 108 q 408 83 389 56 q 370 28 331 9 q 292 -10 231 -10 z m 187 281 l 196 281 q 238 281 273 300 q 308 318 328 351 q 349 384 349 427 q 349 456 338 473 q 328 490 309 490 q 282 490 257 458 q 232 426 214 378 q 195 330 187 281 z"},"b":{"x_min":0,"x_max":550,"ha":550,"o":"m 235 -10 q 199 -10 170 0 q 141 11 125 26 l 74 -3 l 22 -3 l 153 613 q 158 636 160 650 q 163 664 163 675 q 163 695 152 702 q 142 709 120 709 l 98 709 l 108 760 l 324 760 l 284 569 q 281 555 274 532 q 266 510 258 484 q 249 459 242 438 q 234 416 231 405 l 235 405 q 269 475 308 510 q 346 546 404 546 q 458 546 493 502 q 528 458 528 375 q 528 326 515 272 q 502 219 477 169 q 452 119 416 78 q 380 38 334 14 q 289 -10 235 -10 z m 232 51 q 263 51 288 74 q 313 96 332 132 q 351 169 364 212 q 377 255 384 297 q 390 339 390 371 q 390 425 378 448 q 365 470 348 470 q 324 470 302 446 q 281 423 264 390 q 247 356 235 323 q 223 290 219 270 l 178 81 q 187 68 200 60 q 214 51 232 51 z"},"%":{"x_min":0,"x_max":793,"ha":793,"o":"m 194 280 q 139 280 107 316 q 75 351 75 421 q 75 467 88 520 q 100 572 126 618 q 152 665 192 694 q 231 724 285 724 q 350 724 379 684 q 408 643 408 581 q 408 538 395 486 q 382 435 356 388 q 329 341 289 310 q 249 280 194 280 z m 165 0 l 615 714 l 680 714 l 233 0 z m 207 329 q 227 329 244 348 q 261 368 274 399 q 288 430 297 466 q 306 502 311 536 q 316 571 316 596 q 316 633 308 654 q 301 674 281 673 q 261 673 244 654 q 227 635 214 604 q 200 573 191 537 q 182 501 177 468 q 172 434 172 409 q 172 372 180 350 q 188 329 207 329 z m 560 -9 q 505 -9 473 26 q 441 62 441 131 q 441 177 454 230 q 466 282 492 328 q 518 375 557 404 q 596 434 650 434 q 715 434 744 394 q 774 353 774 291 q 774 249 761 198 q 748 146 722 99 q 695 52 655 22 q 615 -9 560 -9 z m 572 40 q 593 40 610 59 q 627 78 640 109 q 654 140 663 176 q 672 212 677 246 q 682 281 682 306 q 682 343 674 364 q 666 384 646 384 q 626 384 609 364 q 592 345 578 314 q 565 284 556 248 q 547 212 542 178 q 537 144 537 120 q 537 82 545 61 q 553 40 572 40 z"},"m":{"x_min":0,"x_max":848,"ha":848,"o":"m 697 -8 q 643 -8 618 23 q 594 54 594 97 q 594 118 598 146 q 602 175 612 216 l 629 296 q 634 318 640 354 q 647 389 647 417 q 647 436 641 452 q 635 467 616 467 q 596 467 577 447 q 558 427 541 396 q 524 364 511 328 q 498 291 492 259 l 480 199 q 475 178 469 140 q 463 103 458 64 q 454 26 451 0 l 309 0 q 312 26 318 66 q 325 105 332 148 q 340 190 347 224 l 362 295 q 370 328 375 362 q 380 395 380 418 q 380 434 375 449 q 370 464 354 464 q 333 464 312 442 q 291 421 273 388 q 255 354 241 318 q 227 281 221 252 l 168 0 l 31 0 l 115 399 q 117 412 120 426 q 123 440 123 450 q 123 471 112 478 q 101 485 80 485 l 63 485 l 73 536 l 278 536 l 262 438 l 266 438 q 304 495 344 520 q 383 545 430 545 q 482 545 502 514 q 522 484 522 443 q 522 440 522 436 q 522 433 521 430 l 525 430 q 558 491 600 518 q 641 546 696 546 q 750 546 771 514 q 792 482 792 439 q 792 413 785 379 q 778 345 773 318 l 750 212 q 744 182 740 156 q 735 131 735 110 q 735 68 764 68 q 778 68 790 74 q 801 80 815 91 l 835 58 q 815 34 780 13 q 746 -8 697 -8 z"},"#":{"x_min":0,"x_max":484,"ha":484,"o":"m 52 0 l 110 201 l 31 201 l 38 268 l 129 268 l 181 451 l 88 451 l 97 519 l 201 519 l 254 714 l 317 714 l 264 519 l 363 519 l 418 714 l 480 714 l 426 519 l 505 519 l 496 451 l 405 451 l 354 268 l 446 268 l 439 201 l 334 201 l 278 0 l 216 0 l 272 201 l 172 201 l 116 0 z m 191 268 l 291 268 l 343 451 l 243 451 z"},",":{"x_min":0,"x_max":270,"ha":270,"o":"m -17 -150 l -5 -99 q 87 -75 87 -14 q 87 5 76 16 q 64 26 53 39 q 42 52 42 78 q 42 111 62 130 q 83 148 110 148 q 141 148 162 125 q 184 102 184 61 q 184 -14 133 -72 q 82 -129 -17 -150 z"},"n":{"x_min":0,"x_max":596,"ha":596,"o":"m 440 -10 q 389 -10 362 18 q 336 47 337 95 q 337 135 353 214 l 370 294 q 373 307 378 328 q 382 350 385 372 q 388 394 388 411 q 388 430 382 447 q 376 464 356 464 q 334 464 312 440 q 291 416 272 379 q 253 342 238 302 q 224 262 218 230 l 168 0 l 31 0 l 115 399 q 118 412 120 427 q 123 442 123 452 q 123 472 112 478 q 102 485 80 485 l 63 485 l 73 536 l 268 536 l 259 436 l 263 436 q 300 492 339 518 q 378 545 433 545 q 489 545 511 512 q 533 480 533 437 q 533 411 526 378 q 520 344 514 317 l 492 210 q 486 181 482 155 q 478 129 478 109 q 478 66 506 66 q 519 66 531 72 q 543 78 558 90 l 578 56 q 557 32 524 11 q 490 -10 440 -10 z"},"h":{"x_min":0,"x_max":585,"ha":585,"o":"m 434 -10 q 384 -10 358 17 q 331 44 331 89 q 331 108 335 139 q 339 170 348 210 l 365 294 q 368 307 372 328 q 377 350 380 372 q 384 394 384 411 q 384 430 378 447 q 371 464 350 464 q 328 464 307 442 q 286 419 268 384 q 250 349 236 312 q 223 275 217 246 l 162 0 l 25 0 l 157 621 q 160 637 163 650 q 166 664 166 673 q 166 694 154 702 q 143 709 120 709 l 102 709 l 112 760 l 329 760 l 282 536 q 275 508 268 478 q 260 448 258 437 l 261 437 q 330 546 429 546 q 484 546 506 513 q 528 480 528 437 q 528 411 522 379 q 515 347 509 319 l 487 210 q 481 182 476 156 q 472 130 472 109 q 472 66 501 66 q 514 66 526 72 q 537 78 552 90 l 573 56 q 551 31 518 10 q 484 -10 434 -10 z"},"z":{"x_min":0,"x_max":489,"ha":489,"o":"m 0 0 l 12 49 l 314 472 l 211 472 q 176 472 161 447 q 146 422 126 382 l 124 378 l 69 378 l 112 536 l 485 536 l 474 486 l 171 64 l 310 64 q 340 64 357 92 q 374 121 387 154 l 396 178 l 448 178 l 405 0 z"},"B":{"x_min":0,"x_max":591,"ha":591,"o":"m -20 0 l -9 51 l 2 51 q 30 51 52 62 q 75 72 84 113 l 183 586 q 186 602 188 612 q 191 622 191 628 q 191 650 174 656 q 157 663 130 663 l 119 663 l 130 714 l 404 714 q 502 714 552 676 q 603 639 603 568 q 603 485 560 440 q 518 394 457 378 l 456 374 q 501 365 530 329 q 558 293 558 233 q 558 113 485 56 q 412 0 272 0 z m 288 404 l 334 404 q 397 404 424 447 q 450 490 450 563 q 450 655 376 655 l 340 655 z m 215 59 l 272 59 q 348 59 378 108 q 408 157 408 243 q 408 344 327 344 l 275 344 z"},"K":{"x_min":0,"x_max":646,"ha":646,"o":"m -20 0 l -9 51 l 2 51 q 29 51 52 62 q 75 72 84 113 l 185 594 q 188 609 190 616 q 192 624 192 629 q 192 651 174 657 q 157 663 130 663 l 119 663 l 130 714 l 431 714 l 420 663 l 409 663 q 381 663 359 652 q 337 641 328 600 l 280 355 l 456 542 q 492 580 503 602 q 514 625 514 640 q 514 652 506 658 q 498 664 477 664 l 488 714 l 728 714 l 716 664 q 682 664 650 643 q 617 622 574 579 l 430 436 l 526 148 q 544 95 560 73 q 576 51 605 51 l 608 51 l 597 0 l 545 0 q 488 0 456 13 q 423 26 404 58 q 385 90 368 147 l 312 325 l 262 281 l 226 112 q 224 104 223 97 q 222 90 222 85 q 222 63 240 57 q 257 51 284 51 l 296 51 l 284 0 z"},"R":{"x_min":0,"x_max":617,"ha":617,"o":"m -20 0 l -9 51 l 2 51 q 29 51 52 62 q 75 72 83 112 l 185 595 q 188 609 190 616 q 191 624 191 629 q 191 651 174 657 q 157 663 130 663 l 118 663 l 130 714 l 415 714 q 618 714 618 553 q 618 483 593 440 q 568 396 531 372 q 494 349 458 339 l 512 153 q 529 98 546 74 q 563 51 591 51 l 596 51 l 584 0 l 571 0 q 512 0 472 9 q 432 18 408 43 q 385 68 373 115 l 323 311 l 268 311 l 228 124 q 222 91 222 85 q 222 63 240 57 q 257 51 284 51 l 312 51 l 300 0 z m 279 367 l 331 367 q 368 367 398 385 q 428 403 446 442 q 464 482 464 548 q 464 607 444 632 q 425 657 385 657 l 342 657 z"},"T":{"x_min":0,"x_max":570,"ha":570,"o":"m 91 0 l 102 51 l 113 51 q 140 51 162 62 q 185 72 194 112 l 306 655 l 239 655 q 198 655 179 632 q 160 608 146 566 l 133 524 l 73 524 l 119 714 l 664 714 l 628 524 l 569 524 q 570 529 572 546 q 574 564 576 582 q 578 599 578 603 q 578 628 564 642 q 550 655 519 655 l 451 655 l 337 117 q 335 105 334 98 q 332 90 332 85 q 332 63 350 57 q 367 51 395 51 l 405 51 l 393 0 z"},"P":{"x_min":0,"x_max":580,"ha":580,"o":"m -20 0 l -9 51 l 2 51 q 29 51 52 62 q 75 72 84 113 l 185 595 q 191 620 191 629 q 191 651 174 657 q 157 663 130 663 l 118 663 l 130 714 l 382 714 q 482 714 541 666 q 600 619 600 527 q 600 462 573 404 q 546 346 486 310 q 426 274 328 274 l 262 274 l 227 116 q 222 96 222 85 q 222 63 240 57 q 257 51 284 51 l 312 51 l 300 0 z m 274 330 l 309 330 q 360 330 392 358 q 423 385 438 431 q 452 477 452 533 q 452 603 428 630 q 403 657 365 657 l 344 657 z"},"|":{"x_min":0,"x_max":487,"ha":487,"o":"m 226 -240 l 226 760 l 289 760 l 289 -240 z"},"t":{"x_min":0,"x_max":367,"ha":367,"o":"m 172 -10 q 124 -10 92 18 q 59 45 59 99 q 59 119 62 146 q 66 172 71 191 l 131 470 l 64 470 l 75 519 q 112 519 164 550 q 215 582 260 659 l 311 659 l 285 536 l 390 536 l 376 470 l 270 470 l 211 196 q 206 172 203 152 q 200 132 200 116 q 200 93 211 80 q 222 68 241 68 q 260 68 278 76 q 295 83 310 93 l 329 56 q 299 28 262 9 q 224 -10 172 -10 z"},"M":{"x_min":0,"x_max":826,"ha":826,"o":"m -20 0 l -9 51 l 2 51 q 29 51 52 62 q 75 72 83 112 l 185 595 q 188 609 190 616 q 191 624 191 629 q 191 651 174 657 q 157 663 130 663 l 118 663 l 130 714 l 377 714 l 419 229 l 653 714 l 911 714 l 900 663 l 889 663 q 860 663 838 652 q 815 641 806 600 l 704 114 q 699 94 699 85 q 699 63 716 57 q 733 51 760 51 l 771 51 l 760 0 l 455 0 l 467 51 l 480 51 q 507 51 532 62 q 556 72 564 112 l 669 620 l 368 0 l 307 0 l 256 620 l 151 117 q 149 106 147 98 q 145 90 145 85 q 145 63 162 57 q 179 51 204 51 l 209 51 l 198 0 z"},"g":{"x_min":0,"x_max":506,"ha":506,"o":"m 143 -240 q 36 -240 -10 -206 q -56 -172 -56 -116 q -56 -78 -36 -51 q -15 -24 18 -6 q 50 11 86 18 q 70 28 57 48 q 44 67 44 93 q 44 127 69 154 q 94 182 142 208 q 84 241 84 322 q 84 358 98 397 q 112 436 140 470 q 169 504 211 525 q 253 546 310 546 q 338 546 364 538 q 389 530 407 514 q 428 542 453 562 q 478 583 510 583 q 536 583 548 568 q 561 554 561 532 q 561 510 549 486 q 537 462 504 462 q 506 502 476 502 q 463 502 454 497 q 444 492 434 484 q 454 452 454 409 q 454 374 442 336 q 429 297 402 264 q 376 230 335 209 q 294 188 237 188 q 227 188 216 189 q 206 190 198 191 q 176 182 160 167 q 143 152 143 136 q 143 120 156 114 q 170 108 190 106 l 288 95 q 350 88 384 57 q 419 26 419 -35 q 419 -94 387 -140 q 355 -187 294 -214 q 232 -240 143 -240 z m 240 248 q 263 248 280 266 q 298 283 310 310 q 322 337 328 368 q 334 398 334 423 q 334 487 291 487 q 268 487 251 470 q 234 452 222 425 q 209 398 203 368 q 197 338 197 313 q 197 278 208 263 q 220 248 240 248 z m 155 -182 q 232 -182 267 -151 q 302 -120 302 -79 q 302 -52 283 -36 q 264 -21 220 -17 l 146 -9 q 105 -15 78 -43 q 52 -71 52 -108 q 52 -140 73 -161 q 94 -182 155 -182 z"},"j":{"x_min":0,"x_max":298,"ha":298,"o":"m 222 632 q 193 632 173 646 q 153 660 153 689 q 153 730 180 748 q 206 767 240 767 q 268 767 289 754 q 310 740 310 709 q 310 669 286 650 q 261 632 222 632 z m -38 -239 q -66 -240 -86 -237 q -105 -234 -127 -229 l -115 -178 q -110 -180 -98 -182 q -86 -185 -77 -185 q -50 -185 -32 -168 q -14 -152 0 -113 q 15 -74 29 -8 l 115 401 q 118 416 120 427 q 122 438 122 448 q 122 470 112 478 q 102 485 78 485 l 63 485 l 73 536 l 284 536 l 168 -8 q 150 -95 118 -146 q 86 -196 46 -217 q 6 -238 -38 -239 z"},"i":{"x_min":0,"x_max":313,"ha":313,"o":"m 222 632 q 193 632 173 646 q 153 660 153 689 q 153 730 180 748 q 206 767 240 767 q 268 767 290 754 q 311 740 311 709 q 311 669 284 650 q 256 632 222 632 z m 165 -10 q 113 -10 86 16 q 59 43 59 88 q 59 112 66 150 q 72 188 82 236 l 115 393 q 123 431 123 450 q 123 471 112 478 q 102 485 79 485 l 63 485 l 73 536 l 285 536 l 215 212 q 209 183 204 156 q 200 130 200 109 q 200 66 229 66 q 242 66 254 72 q 265 79 280 90 l 300 57 q 278 33 246 12 q 215 -10 165 -10 z"},"y":{"x_min":0,"x_max":515,"ha":515,"o":"m -61 -240 q -86 -240 -110 -235 q -133 -230 -152 -222 l -138 -167 q -128 -171 -109 -175 q -90 -179 -63 -179 q -10 -179 32 -159 q 74 -139 109 -106 q 144 -72 176 -30 l 81 432 q 74 462 61 474 q 48 485 22 485 l 13 485 l 26 536 l 201 536 l 249 275 q 254 249 260 214 q 265 179 268 148 q 272 116 273 100 l 276 100 q 312 155 343 210 q 374 264 392 312 q 411 361 411 399 q 411 431 396 448 q 381 464 357 464 q 358 502 379 524 q 400 545 430 545 q 465 545 483 524 q 501 503 501 465 q 501 388 454 289 q 406 190 324 65 q 274 -11 232 -68 q 191 -125 149 -164 q 107 -202 56 -221 q 6 -240 -61 -240 z"},"@":{"x_min":0,"x_max":798,"ha":798,"o":"m 379 -142 q 286 -142 210 -101 q 133 -60 87 21 q 41 102 41 224 q 41 328 74 418 q 106 507 164 574 q 223 640 302 677 q 380 714 472 714 q 570 714 636 673 q 703 632 736 562 q 770 492 770 404 q 770 302 742 229 q 715 156 672 116 q 628 77 580 77 q 542 77 516 99 q 490 121 476 170 l 471 170 q 452 131 423 104 q 394 77 348 77 q 295 77 256 116 q 216 156 216 237 q 216 279 230 329 q 244 379 273 424 q 302 470 348 500 q 394 529 459 529 q 490 529 511 520 q 532 511 546 499 l 587 520 l 608 520 l 561 269 q 559 255 556 232 q 554 210 554 196 q 554 160 566 147 q 578 134 592 134 q 616 134 640 166 q 663 197 678 257 q 694 317 694 402 q 694 531 630 598 q 566 664 465 664 q 402 664 342 633 q 281 602 233 544 q 185 486 156 404 q 128 321 128 218 q 128 108 164 40 q 199 -29 259 -60 q 319 -92 392 -92 q 460 -92 521 -66 q 582 -41 624 -8 l 645 -44 q 598 -84 528 -113 q 459 -142 379 -142 z m 377 134 q 401 134 417 152 q 433 169 442 196 q 452 224 458 254 l 498 457 q 494 471 480 478 q 466 486 453 486 q 427 486 406 468 q 385 449 370 419 q 355 389 346 354 q 336 319 331 286 q 326 253 326 229 q 326 183 340 158 q 354 134 377 134 z"},".":{"x_min":0,"x_max":270,"ha":270,"o":"m 102 -8 q 71 -8 52 10 q 32 28 32 62 q 32 100 54 124 q 76 149 112 149 q 143 149 163 132 q 183 116 183 81 q 183 32 157 12 q 131 -8 102 -8 z"},"p":{"x_min":0,"x_max":556,"ha":556,"o":"m -24 -240 l 112 397 q 115 414 118 427 q 120 440 120 450 q 120 471 110 478 q 99 485 77 485 l 60 485 l 70 536 l 260 536 l 236 418 l 243 418 q 274 474 310 510 q 347 546 408 546 q 464 546 498 502 q 533 458 533 376 q 533 330 522 278 q 510 225 487 175 q 464 125 430 84 q 396 42 351 17 q 306 -8 250 -9 q 227 -10 204 -4 q 181 2 163 13 q 163 13 161 -2 q 159 -18 155 -35 l 142 -101 q 134 -131 134 -153 q 134 -176 146 -182 q 157 -189 180 -189 l 213 -189 l 204 -240 z m 243 50 q 271 50 294 72 q 318 94 337 130 q 356 165 369 208 q 382 251 389 294 q 396 336 396 371 q 396 408 387 439 q 378 470 353 470 q 332 470 311 449 q 290 428 272 396 q 253 363 240 327 q 227 291 221 261 l 183 80 q 190 70 207 60 q 224 50 243 50 z"},"X":{"x_min":0,"x_max":642,"ha":642,"o":"m -36 0 l -24 51 l -15 51 q 11 51 32 66 q 54 82 89 123 l 288 351 l 197 612 q 186 645 171 654 q 156 663 132 663 l 123 663 l 134 714 l 427 714 l 416 663 l 396 663 q 355 663 355 634 q 355 624 358 610 q 362 595 369 575 l 410 449 l 516 576 q 530 591 539 608 q 548 624 548 639 q 548 663 508 663 l 505 663 l 516 714 l 719 714 l 709 663 l 701 663 q 676 663 655 648 q 634 632 600 591 l 431 393 l 531 104 q 542 73 558 62 q 574 51 590 51 l 600 51 l 589 0 l 297 0 l 308 51 l 321 51 q 371 51 371 90 q 371 104 367 125 q 363 146 353 176 l 310 295 l 183 148 q 166 128 156 110 q 147 93 147 78 q 147 64 156 58 q 165 51 191 51 l 196 51 l 184 0 z"},"*":{"x_min":0,"x_max":518,"ha":518,"o":"m 336 362 l 240 383 l 302 535 l 156 464 l 137 566 l 276 576 l 154 650 l 214 735 l 316 600 l 322 765 l 419 743 l 354 593 l 501 662 l 520 560 l 382 552 l 504 478 l 443 394 l 339 526 z"},"Y":{"x_min":0,"x_max":608,"ha":608,"o":"m 96 0 l 106 51 l 130 51 q 157 51 180 62 q 202 73 210 113 l 239 261 l 155 610 q 148 639 140 651 q 131 663 106 663 l 94 663 l 105 714 l 393 714 l 382 663 l 344 663 q 323 663 314 654 q 306 646 306 631 q 306 613 312 586 q 317 558 322 528 l 339 447 q 346 414 351 377 q 356 340 358 308 q 366 328 384 358 q 401 387 424 422 l 513 564 q 541 606 541 635 q 541 650 528 656 q 516 663 487 663 l 471 663 l 483 714 l 711 714 l 700 663 l 684 663 q 662 663 647 646 q 632 630 600 583 l 383 257 l 354 113 q 352 103 350 96 q 349 90 349 85 q 349 63 366 57 q 384 51 412 51 l 433 51 l 421 0 z"},"c":{"x_min":0,"x_max":462,"ha":462,"o":"m 231 -10 q 178 -10 134 12 q 91 34 66 78 q 40 122 40 189 q 40 245 60 307 q 79 369 117 424 q 155 478 210 512 q 266 546 339 546 q 410 546 442 516 q 475 486 475 445 q 475 413 450 387 q 424 361 363 361 q 364 413 350 451 q 335 489 304 489 q 278 489 256 460 q 233 432 216 387 q 198 342 188 291 q 178 240 178 194 q 178 131 202 98 q 225 64 271 64 q 317 64 346 89 q 374 114 393 143 q 398 138 402 128 q 406 118 406 105 q 406 80 387 54 q 368 27 330 8 q 291 -10 231 -10 z"},"!":{"x_min":0,"x_max":350,"ha":350,"o":"m 138 224 l 203 714 l 361 714 l 198 224 z m 140 -8 q 109 -8 90 10 q 70 28 70 62 q 70 100 92 124 q 114 149 150 149 q 181 149 201 132 q 221 116 221 81 q 221 32 195 12 q 169 -8 140 -8 z"},"/":{"x_min":0,"x_max":250,"ha":250,"o":"m -94 -121 l 301 760 l 371 760 l -25 -121 z"},"[":{"x_min":0,"x_max":365,"ha":365,"o":"m 16 -128 l 205 760 l 452 760 l 440 709 l 403 709 q 374 709 350 696 q 327 684 317 637 l 182 -6 q 179 -21 179 -34 q 179 -62 196 -70 q 213 -77 237 -77 l 274 -77 l 263 -128 z"},"6":{"x_min":0,"x_max":508,"ha":508,"o":"m 236 -10 q 187 -10 147 14 q 107 39 83 90 q 59 140 59 219 q 59 312 83 402 q 107 492 152 565 q 196 638 260 681 q 323 724 401 724 q 471 724 507 694 q 543 665 543 624 q 543 586 512 564 q 482 541 427 541 q 428 572 426 601 q 424 630 414 648 q 403 667 380 667 q 270 667 210 387 q 230 404 262 420 q 293 437 339 437 q 387 437 418 414 q 450 391 465 352 q 480 314 480 268 q 480 215 465 166 q 450 116 420 76 q 389 37 344 14 q 298 -10 236 -10 z m 251 52 q 280 52 304 80 q 327 109 340 158 q 353 206 353 266 q 353 320 338 349 q 322 378 293 378 q 266 378 240 361 q 214 344 197 325 q 190 286 186 254 q 183 222 183 188 q 183 119 202 86 q 220 52 251 52 z"},"r":{"x_min":0,"x_max":487,"ha":487,"o":"m 32 0 l 115 390 q 119 406 122 423 q 124 440 124 454 q 124 472 113 478 q 102 485 83 485 l 65 485 l 74 536 l 271 536 l 252 413 l 257 413 q 289 475 324 510 q 358 546 415 546 q 462 546 484 526 q 507 506 507 470 q 507 422 478 397 q 450 372 398 372 q 399 416 390 442 q 382 467 360 467 q 340 467 318 443 q 297 419 276 378 q 255 336 237 284 q 219 231 207 175 l 169 0 z"},"2":{"x_min":0,"x_max":508,"ha":508,"o":"m -10 0 l 10 99 l 218 299 q 282 360 316 406 q 349 453 361 494 q 373 534 373 576 q 373 615 358 640 q 344 665 317 665 q 276 665 252 617 q 228 569 223 499 q 178 499 149 518 q 120 538 120 578 q 120 617 144 650 q 168 684 215 704 q 262 724 329 724 q 417 724 464 688 q 511 651 511 588 q 511 538 489 492 q 467 447 416 394 q 366 341 279 269 l 99 104 l 301 104 q 343 104 362 129 q 382 154 394 185 l 401 202 l 454 202 l 404 0 z"},"{":{"x_min":0,"x_max":385,"ha":385,"o":"m 205 -126 q 144 -126 112 -98 q 80 -70 80 -21 q 80 -8 82 8 q 84 25 92 58 l 120 193 q 123 210 123 224 q 123 262 99 275 q 75 288 40 289 l 53 347 q 96 348 128 366 q 161 385 173 442 l 209 615 q 226 693 272 726 q 318 760 404 760 l 478 760 l 466 709 l 431 709 q 394 709 378 682 q 361 656 348 598 l 314 440 q 304 394 276 364 q 248 334 194 321 l 193 315 q 267 293 267 228 q 267 216 264 203 q 261 190 259 179 l 226 25 q 220 0 220 -23 q 220 -48 231 -61 q 242 -74 267 -74 l 301 -74 l 289 -126 z"},"9":{"x_min":0,"x_max":508,"ha":508,"o":"m 164 -10 q 96 -10 64 20 q 33 49 33 88 q 33 120 52 140 q 72 160 107 160 q 106 134 113 109 q 120 84 135 67 q 150 50 176 50 q 239 50 282 128 q 324 206 360 343 q 338 317 305 296 q 272 275 228 275 q 160 275 124 320 q 88 364 88 434 q 88 519 123 584 q 158 650 216 687 q 274 724 342 724 q 418 724 463 676 q 508 627 508 538 q 508 492 500 434 q 491 376 474 314 q 456 252 428 194 q 401 137 362 90 q 324 44 275 17 q 226 -10 164 -10 z m 276 344 q 309 344 334 369 q 358 394 374 423 q 381 449 386 484 q 390 519 390 545 q 390 606 373 633 q 356 660 331 660 q 307 660 286 640 q 265 621 250 588 q 234 555 226 516 q 217 476 217 437 q 217 390 233 367 q 249 344 276 344 z"}," ":{"x_min":0,"x_max":225,"ha":225,"o":""},"I":{"x_min":0,"x_max":352,"ha":352,"o":"m -20 0 l -9 51 l 2 51 q 30 51 52 62 q 75 72 84 113 l 186 596 q 192 620 192 629 q 192 651 175 657 q 158 663 130 663 l 119 663 l 130 714 l 435 714 l 425 663 l 413 663 q 384 663 361 652 q 338 641 330 600 l 228 123 q 226 111 224 101 q 222 91 222 85 q 222 63 240 57 q 257 51 284 51 l 296 51 l 284 0 z"},"H":{"x_min":0,"x_max":713,"ha":713,"o":"m -20 0 l -9 51 l 2 51 q 30 51 52 62 q 75 72 84 113 l 185 593 q 188 608 190 618 q 192 627 192 632 q 192 649 178 656 q 165 663 130 663 l 119 663 l 130 714 l 431 714 l 420 663 l 409 663 q 381 663 359 652 q 337 641 328 600 l 288 402 l 506 402 l 548 598 q 554 620 554 632 q 554 649 541 656 q 528 663 496 663 l 484 663 l 495 714 l 796 714 l 785 663 l 774 663 q 746 663 722 652 q 699 641 690 600 l 588 114 q 586 105 585 97 q 584 89 584 83 q 584 66 597 58 q 610 51 645 51 l 657 51 l 645 0 l 344 0 l 356 51 l 367 51 q 393 51 416 62 q 438 73 446 114 l 494 343 l 274 343 l 226 113 q 224 105 223 97 q 222 89 222 83 q 222 64 235 58 q 248 51 280 51 l 291 51 l 280 0 z"},"4":{"x_min":0,"x_max":508,"ha":508,"o":"m 120 0 l 131 51 l 153 51 q 170 51 188 55 q 205 59 219 74 q 233 90 240 123 l 254 189 l 17 189 l 31 246 l 368 714 l 498 714 l 400 251 l 487 251 l 473 189 l 386 189 l 372 121 q 370 114 369 104 q 368 94 368 88 q 368 64 383 58 q 398 51 423 51 l 438 51 l 427 0 z m 255 468 l 97 251 l 267 251 l 304 430 q 312 470 324 523 q 336 576 350 622 q 338 598 320 569 q 303 540 286 513 q 268 486 255 468 z"},"~":{"x_min":0,"x_max":465,"ha":465,"o":"m 46 263 q 46 312 57 354 q 68 397 93 424 q 118 450 162 450 q 192 450 216 434 q 240 418 275 383 q 300 358 313 346 q 326 333 341 333 q 365 333 376 360 q 388 388 390 450 l 458 450 q 457 400 446 358 q 436 315 411 289 q 386 263 343 263 q 318 263 294 276 q 270 288 233 328 q 205 358 192 370 q 180 381 165 381 q 140 381 127 353 q 114 325 113 263 z"},"D":{"x_min":0,"x_max":671,"ha":671,"o":"m -20 0 l -10 51 l 2 51 q 30 51 52 62 q 75 72 84 113 l 184 594 q 187 604 189 614 q 191 623 191 629 q 191 652 174 658 q 157 663 130 663 l 119 663 l 130 714 l 412 714 q 534 714 602 648 q 670 581 670 455 q 670 364 644 282 q 619 200 570 136 q 521 73 450 36 q 379 0 288 0 z m 216 60 l 250 60 q 334 60 394 112 q 453 165 485 256 q 517 348 517 464 q 517 563 478 609 q 440 655 373 655 l 340 655 z"},"^":{"x_min":0,"x_max":465,"ha":465,"o":"m 48 263 l 232 714 l 270 714 l 454 263 l 386 263 l 250 608 l 116 263 z"},"0":{"x_min":0,"x_max":508,"ha":508,"o":"m 223 -11 q 144 -11 96 48 q 48 106 48 218 q 48 279 60 348 q 71 417 94 484 q 117 551 152 606 q 188 660 236 692 q 284 725 345 725 q 418 725 467 672 q 516 620 516 508 q 516 449 505 380 q 494 310 471 241 q 448 172 414 115 q 379 58 332 24 q 284 -11 223 -11 z m 229 55 q 260 55 286 89 q 312 123 333 178 q 354 233 369 298 q 384 363 392 426 q 399 490 399 539 q 399 660 339 660 q 310 660 284 626 q 258 593 237 538 q 216 484 201 420 q 186 355 178 292 q 170 228 170 178 q 170 116 186 86 q 202 55 229 55 z"},"F":{"x_min":0,"x_max":542,"ha":542,"o":"m -20 0 l -9 51 l 2 51 q 29 51 52 62 q 75 72 83 112 l 182 578 q 185 593 188 608 q 191 622 191 629 q 191 651 174 657 q 156 663 130 663 l 119 663 l 130 714 l 612 714 l 576 530 l 512 530 q 514 547 516 566 q 518 586 518 592 q 518 619 504 637 q 490 655 456 655 l 340 655 l 283 379 l 488 379 l 475 322 l 270 322 l 227 122 q 225 108 224 100 q 222 93 222 86 q 222 64 238 58 q 254 51 277 51 l 298 51 l 286 0 z"},"`":{"x_min":0,"x_max":307,"ha":307,"o":"m 285 606 q 260 624 232 652 q 203 679 180 708 q 156 736 144 756 l 147 766 l 279 766 q 286 742 297 714 q 308 687 320 662 q 332 636 342 619 l 339 606 z"},"k":{"x_min":0,"x_max":530,"ha":530,"o":"m 457 -5 q 387 -5 350 16 q 313 38 296 95 l 250 234 l 204 198 l 162 0 l 25 0 l 157 621 q 160 637 162 651 q 165 665 165 674 q 165 696 154 702 q 144 709 123 709 l 102 709 l 112 760 l 329 760 l 264 467 q 252 412 241 364 q 230 317 214 263 l 334 386 q 368 424 378 440 q 388 456 388 466 q 388 476 379 482 q 370 487 348 487 l 358 536 l 579 536 l 570 487 q 508 487 415 388 l 357 328 l 422 146 q 444 86 465 66 q 486 45 508 45 l 497 -5 z"},"u":{"x_min":0,"x_max":592,"ha":592,"o":"m 441 -10 q 382 -10 360 16 q 339 43 339 80 q 339 88 340 98 q 342 108 343 117 l 337 117 q 297 58 258 24 q 218 -9 156 -9 q 102 -9 81 22 q 60 54 60 97 q 60 123 66 154 q 72 186 77 212 l 113 388 q 118 410 121 426 q 124 443 124 454 q 124 472 114 478 q 103 485 79 485 l 63 485 l 74 536 l 284 536 l 220 237 q 214 209 208 177 q 203 145 203 125 q 203 104 212 90 q 220 77 239 77 q 257 77 277 96 q 297 115 315 147 q 333 179 348 218 q 363 256 371 295 l 423 536 l 561 536 l 491 205 q 486 180 482 156 q 478 132 478 109 q 478 66 508 66 q 522 66 533 72 q 544 78 559 90 l 579 57 q 557 32 524 11 q 492 -10 441 -10 z"},"]":{"x_min":0,"x_max":365,"ha":365,"o":"m -51 -128 l -39 -77 l -2 -77 q 26 -77 50 -64 q 74 -52 84 -5 l 218 638 q 220 646 221 652 q 222 659 222 666 q 222 694 204 702 q 187 709 164 709 l 126 709 l 137 760 l 383 760 l 195 -128 z"},"U":{"x_min":0,"x_max":650,"ha":650,"o":"m 298 -10 q 197 -10 144 34 q 91 78 91 157 q 91 175 94 204 q 98 234 102 252 l 176 594 q 179 609 180 616 q 182 624 182 629 q 182 651 164 657 q 147 663 120 663 l 110 663 l 121 714 l 427 714 l 416 663 l 404 663 q 376 663 352 652 q 328 642 320 601 l 245 249 q 240 229 236 204 q 232 179 232 157 q 232 59 333 59 q 384 59 416 82 q 448 106 466 147 q 484 188 495 240 l 571 598 q 576 618 576 629 q 576 651 558 657 q 541 663 514 663 l 504 663 l 514 714 l 743 714 l 732 663 l 721 663 q 693 663 670 652 q 646 641 638 600 l 558 217 q 536 108 472 49 q 408 -10 298 -10 z"},"o":{"x_min":0,"x_max":540,"ha":540,"o":"m 220 -10 q 140 -10 90 40 q 40 90 40 190 q 40 247 58 309 q 77 371 114 425 q 151 479 207 512 q 263 546 338 546 q 387 546 427 526 q 467 505 491 461 q 515 417 515 346 q 515 303 504 254 q 493 205 470 158 q 447 111 412 73 q 376 35 328 12 q 281 -10 220 -10 z m 238 58 q 266 58 289 80 q 312 103 329 139 q 346 175 358 218 q 369 261 374 302 q 380 344 380 376 q 380 432 364 457 q 347 482 319 482 q 293 482 270 460 q 248 439 231 404 q 214 368 202 326 q 190 284 184 242 q 177 199 177 164 q 177 107 194 82 q 210 58 238 58 z"},"N":{"x_min":0,"x_max":685,"ha":685,"o":"m -20 0 l -9 51 l 2 51 q 29 51 52 62 q 75 72 84 113 l 185 595 q 187 608 189 616 q 191 624 191 629 q 191 651 174 657 q 157 663 130 663 l 118 663 l 130 714 l 327 714 l 523 190 l 607 597 q 612 619 612 629 q 612 651 595 657 q 578 663 554 663 l 549 663 l 559 714 l 778 714 l 767 663 l 755 663 q 728 663 706 652 q 683 642 675 601 l 548 0 l 465 0 l 245 574 l 151 118 q 145 92 145 85 q 145 63 162 57 q 180 51 204 51 l 209 51 l 198 0 z"},"+":{"x_min":0,"x_max":465,"ha":465,"o":"m 216 143 l 216 323 l 65 323 l 65 392 l 216 392 l 216 572 l 286 572 l 286 392 l 438 392 l 438 323 l 286 323 l 286 143 z"},"G":{"x_min":0,"x_max":696,"ha":696,"o":"m 323 -10 q 193 -10 128 59 q 63 128 63 247 q 63 345 93 432 q 123 518 178 584 q 233 649 310 686 q 386 724 478 724 q 577 724 627 688 q 677 653 677 609 q 677 566 638 542 q 599 517 545 517 q 546 579 524 620 q 502 662 452 662 q 402 662 358 626 q 314 591 281 530 q 248 469 230 392 q 211 314 211 230 q 211 153 238 104 q 266 55 330 55 q 350 55 370 60 q 391 66 407 75 l 439 217 q 446 245 446 254 q 446 276 429 282 q 412 288 385 288 l 373 288 l 384 339 l 680 339 l 669 288 l 665 288 q 636 288 614 277 q 592 266 583 225 l 544 36 q 489 13 438 2 q 386 -10 323 -10 z"},"q":{"x_min":0,"x_max":555,"ha":555,"o":"m 260 -240 l 299 -40 q 302 -21 309 11 q 316 43 322 72 q 329 100 332 111 l 327 111 q 296 58 260 24 q 224 -10 162 -10 q 106 -10 72 34 q 39 78 39 162 q 39 222 58 288 q 78 354 115 412 q 152 470 204 506 q 256 543 320 545 q 354 546 388 538 q 422 530 447 514 l 500 546 l 545 546 l 409 -103 q 406 -117 403 -130 q 400 -143 400 -152 q 400 -173 412 -181 q 425 -189 445 -189 l 476 -189 l 465 -240 z m 219 66 q 238 66 258 86 q 279 106 298 139 q 316 172 331 211 q 346 250 353 289 l 389 456 q 383 468 368 477 q 354 486 334 486 q 303 486 278 463 q 253 440 234 402 q 215 365 202 321 q 189 277 182 236 q 176 194 176 163 q 176 110 188 88 q 200 66 219 66 z"},"d":{"x_min":0,"x_max":586,"ha":586,"o":"m 162 -10 q 118 -10 91 13 q 64 36 52 76 q 39 115 39 162 q 39 210 51 262 q 63 315 86 366 q 110 416 144 457 q 177 498 220 522 q 264 546 317 546 q 342 546 364 539 q 386 532 403 521 q 404 534 408 553 q 413 572 415 581 l 423 623 q 427 637 430 650 q 432 664 432 674 q 432 695 420 702 q 409 709 385 709 l 367 709 l 376 760 l 592 760 l 476 215 q 470 190 464 158 q 459 127 459 108 q 459 66 489 66 q 500 66 513 73 q 526 80 536 88 l 554 51 q 530 30 496 10 q 462 -10 414 -10 q 376 -10 353 12 q 330 34 330 83 q 330 93 332 106 q 333 120 336 132 l 330 132 q 296 58 256 24 q 216 -10 162 -10 z m 219 66 q 238 66 258 85 q 278 104 296 136 q 315 168 330 208 q 345 247 353 288 l 389 455 q 380 470 364 478 q 348 486 333 486 q 304 486 280 464 q 255 441 236 404 q 216 367 203 324 q 190 280 183 237 q 176 194 176 160 q 176 108 188 87 q 200 66 219 66 z"},"1":{"x_min":0,"x_max":508,"ha":508,"o":"m 42 0 l 53 51 l 105 51 q 136 51 155 65 q 174 79 182 117 l 259 482 q 266 521 274 556 q 282 592 293 623 l 290 623 q 247 574 217 546 q 187 519 159 519 q 141 519 129 538 q 117 556 118 589 q 149 598 184 614 q 218 629 269 666 l 340 718 l 442 718 l 316 126 q 309 98 309 84 q 309 62 328 56 q 346 51 373 51 l 415 51 l 404 0 z"},"5":{"x_min":0,"x_max":508,"ha":508,"o":"m 186 -10 q 96 -10 58 24 q 20 58 20 104 q 20 138 40 162 q 61 185 104 185 q 104 157 111 127 q 118 97 138 76 q 158 56 197 56 q 253 56 288 104 q 322 153 322 246 q 322 308 294 338 q 266 369 222 369 q 191 369 170 362 q 150 355 133 347 l 97 367 l 194 714 l 527 714 l 496 538 l 441 538 q 442 552 444 567 q 445 582 445 587 q 445 598 436 604 q 428 611 403 611 l 225 611 l 173 417 q 189 422 210 428 q 232 433 263 433 q 352 433 404 386 q 457 340 457 253 q 457 178 424 118 q 392 59 332 24 q 271 -10 186 -10 z"}}}
